<?xml version="1.0" standalone="no"?>
<!DOCTYPE svg PUBLIC "-//W3C//DTD SVG 20010904//EN"
 "http://www.w3.org/TR/2001/REC-SVG-20010904/DTD/svg10.dtd">
<svg version="1.0" xmlns="http://www.w3.org/2000/svg"
 width="500.000000pt" height="500.000000pt" viewBox="0 0 500.000000 500.000000"
 preserveAspectRatio="xMidYMid meet">
<metadata>
Created by potrace 1.14, written by Peter Selinger 2001-2017
</metadata>
<g transform="translate(0.000000,500.000000) scale(0.100000,-0.100000)"
fill="#000000" stroke="none">
<path d="M2762 4230 c-39 -18 -169 -48 -312 -72 -145 -24 -237 -73 -355 -186
-49 -48 -111 -102 -136 -119 -25 -17 -65 -57 -89 -88 -24 -31 -52 -61 -62 -66
-11 -6 -34 -34 -52 -62 -19 -29 -48 -65 -65 -81 -17 -17 -31 -35 -31 -41 0 -6
-16 -34 -35 -61 l-35 -49 0 -170 c0 -229 -3 -222 222 -447 95 -95 198 -190
228 -210 30 -21 83 -57 117 -80 123 -84 181 -118 214 -124 19 -4 42 -11 53
-16 24 -13 103 8 132 34 26 23 22 51 -12 77 -19 15 -36 17 -101 14 l-78 -5
-105 63 c-180 106 -274 187 -443 377 -135 151 -147 175 -147 292 0 110 14 143
108 266 54 71 219 244 232 244 4 0 43 34 86 76 137 133 312 228 486 263 31 7
80 21 110 33 73 29 203 46 229 30 10 -7 33 -12 50 -12 25 0 50 -16 115 -71 46
-39 84 -76 84 -82 0 -6 35 -46 78 -88 182 -181 218 -249 244 -464 14 -124 0
-162 -105 -277 -44 -49 -86 -88 -93 -88 -25 0 -152 -81 -186 -120 -20 -22 -41
-40 -47 -40 -6 0 -22 -17 -35 -37 -28 -44 -310 -333 -324 -333 -16 0 -22 -29
-9 -42 7 -7 16 -21 20 -30 4 -12 17 -18 41 -18 29 0 42 9 90 61 31 33 65 77
75 97 11 20 80 97 154 170 114 111 146 137 204 163 133 59 157 74 229 148 102
104 106 116 112 296 5 150 4 151 -26 220 -16 39 -33 85 -37 104 -9 42 -53 107
-125 185 -32 34 -73 86 -93 116 -19 30 -61 82 -92 115 -32 33 -62 67 -69 76
-6 9 -41 30 -77 47 -63 30 -73 32 -180 32 -91 0 -123 -4 -157 -20z"/>
<path d="M2315 3593 c-64 -16 -106 -50 -179 -146 -30 -39 -37 -56 -34 -85 3
-35 5 -37 39 -40 40 -3 49 5 99 89 32 52 101 107 149 115 20 4 42 11 49 17 13
10 16 43 5 50 -24 14 -75 14 -128 0z"/>
<path d="M2887 3591 c-20 -4 -49 -19 -63 -32 -21 -19 -24 -31 -22 -69 3 -41 5
-45 32 -48 22 -3 35 4 61 32 18 20 42 36 54 36 11 0 73 -27 137 -59 115 -59
116 -59 135 -40 20 20 20 21 2 51 -14 25 -42 42 -126 79 -118 53 -153 61 -210
50z"/>
<path d="M2327 3003 c-4 -3 -7 -17 -7 -30 0 -32 49 -76 126 -114 53 -26 69
-30 130 -27 67 3 69 4 72 31 3 23 -2 30 -32 42 -19 8 -45 15 -57 15 -42 0
-100 24 -138 57 -36 30 -78 42 -94 26z"/>
<path d="M1157 2763 c-4 -3 -7 -18 -7 -32 0 -20 22 -45 103 -113 56 -49 134
-115 172 -149 148 -129 205 -175 246 -199 52 -30 129 -98 129 -114 0 -30 270
-299 340 -338 48 -27 64 -27 80 2 8 14 4 25 -16 49 -14 17 -32 31 -39 31 -7 0
-30 19 -51 43 -21 23 -55 56 -74 72 -20 17 -68 69 -108 115 -39 47 -85 102
-103 123 -28 33 -111 97 -126 97 -6 0 -112 87 -128 105 -5 6 -50 46 -100 87
-49 42 -106 92 -124 112 -19 20 -41 36 -48 36 -7 0 -13 4 -13 9 0 5 -19 23
-42 40 -40 29 -77 39 -91 24z"/>
<path d="M2472 2173 c-4 -10 -15 -37 -22 -61 -7 -23 -28 -59 -45 -80 -33 -38
-70 -120 -132 -292 -100 -276 -110 -320 -123 -565 -7 -147 -21 -219 -53 -281
-14 -27 -33 -117 -53 -251 -3 -18 -23 -56 -45 -85 -50 -66 -50 -101 -2 -106
66 -6 128 90 153 238 7 36 27 110 46 165 31 90 34 111 35 215 0 155 16 270 52
380 8 25 29 92 47 150 17 58 38 119 45 135 7 17 16 46 20 65 13 69 45 141 84
190 22 28 43 60 47 73 3 12 15 34 26 50 11 15 18 37 16 50 -2 18 -10 23 -45
25 -32 2 -44 -1 -51 -15z"/>
<path d="M2617 1693 c-4 -3 -7 -19 -7 -34 0 -30 29 -62 110 -124 30 -22 83
-71 119 -108 66 -68 66 -69 76 -145 9 -69 12 -77 33 -80 40 -6 52 14 52 88 0
37 -7 84 -15 103 -18 44 -121 147 -201 202 -31 22 -72 55 -90 73 -31 30 -62
41 -77 25z"/>
<path d="M2347 943 c-4 -3 -7 -17 -7 -29 0 -26 41 -59 193 -158 69 -45 110
-64 180 -82 51 -14 101 -29 112 -33 11 -5 43 -17 70 -26 131 -43 194 -59 240
-60 47 0 50 1 53 28 2 16 -2 29 -10 31 -7 3 -40 12 -73 21 -33 9 -112 35 -175
57 -63 22 -146 50 -185 63 -38 12 -83 30 -100 39 -16 9 -33 16 -38 16 -4 0
-35 20 -70 44 -34 24 -80 55 -101 70 -37 25 -75 33 -89 19z"/>
</g>
</svg>
